<?xml version="1.0" standalone="no"?><!-- Generator: Gravit.io --><svg xmlns="http://www.w3.org/2000/svg" xmlns:xlink="http://www.w3.org/1999/xlink" style="isolation:isolate" viewBox="850.193 496.47 137.613 73.91" width="137.613" height="73.91"><g><g><path d=" M 855.789 525.641 Q 852.463 523.122 858.789 515.469 Q 865.274 507.625 875.195 502.063 Q 875.164 502.351 874.399 504.36 C 874.211 504.852 874.799 505.167 875.195 505.438 C 870.555 515.492 856.945 540.343 853.305 544.016 C 851.992 545.34 851.979 544.632 851.465 545 C 850.951 545.368 850.278 546.528 850.199 547.453 C 850.133 548.236 850.647 549.061 851.219 548.68 C 852.695 547.696 854.77 545.27 855.086 544.016 C 855.397 542.785 855.754 541.332 857.242 541.016 Q 858.288 540.794 858.461 539.422 L 857.992 538.625 L 859.305 538.203 Q 859.727 534.969 861.274 534.5 C 862.82 534.032 860.711 534.032 861.274 533.094 C 861.836 532.157 864.602 526.578 865.774 524.938 Q 866.945 523.297 863.945 530.141 L 873.695 512.938 Q 875.195 512.75 874.82 524.375 C 874.805 524.851 873.34 524.665 872.57 524.938 C 871.801 525.21 865.961 528.078 866.195 530.141 C 866.43 532.203 869.418 535.227 871.867 534.5 C 874.317 533.774 875.805 534.594 875.899 529.016 C 875.905 528.615 875.905 527.28 876.391 526.953 C 876.854 526.642 877.804 527.34 877.867 526.953 C 877.956 526.413 876.354 525.619 876.391 524.938 C 876.683 519.507 876.735 512.54 875.195 510.547 C 874.466 509.603 876.399 508.157 877.586 505.016 C 878.518 503.733 878.94 504.401 879.063 503.944 Q 879.186 503.487 879.18 500.563 Q 878.242 499.094 876.836 500.032 C 875.098 501.19 852.591 514.853 852.977 523.297 Q 853.18 527.75 855.789 525.641 Z  M 874.399 525.969 Q 869.399 526.407 868.18 529.219 C 867.209 531.459 869.555 533.25 870.649 533.407 C 871.742 533.563 874.086 532.75 874.399 529.219 Q 874.711 525.688 874.399 525.969 Z " fill-rule="evenodd" fill="rgb(0,0,0)"/><path d=" M 881.359 522.487 C 881.016 522.048 880.624 521.018 880.267 520.706 C 879.715 520.222 879.246 520.579 879.168 520.706 C 879.09 520.832 878.606 522.006 879.695 522.991 C 880.785 523.975 882.613 526.647 882.508 527.35 C 882.402 528.053 878.078 535.19 878.008 535.682 C 877.958 536.03 878.524 538.372 880.082 535.682 C 881.711 532.87 882.543 530.338 883.106 530.022 C 883.668 529.706 883.41 529.84 883.598 529.811 C 883.786 529.782 883.176 530.971 884.406 531.709 C 884.954 532.038 885.896 532.51 886.742 532.51 C 887.797 532.51 888.811 531.903 889.961 530.831 C 890.395 530.426 891.21 528.713 891.461 528.768 C 890.711 530.502 891.961 533.26 894.215 531.006 C 897.11 528.112 898.563 526.19 898.504 525.522 C 898.188 525.159 898.031 525.492 897.711 525.522 C 897.391 525.552 893.5 530.01 893.172 529.682 Q 892.844 529.354 894.988 524.221 Q 895.152 523.682 894.086 523.553 C 893.02 523.424 890.56 527.393 888.953 530.022 C 887.57 532.284 882.14 530.741 885.813 524.221 C 886.256 523.435 886.609 522.789 886.996 522.638 C 887.383 522.487 887.641 522.909 887.852 522.487 C 888.063 522.065 886.982 521.07 886.141 521.549 C 885.5 521.914 884.617 523.464 883.258 525.276 C 883.143 525.428 882.397 523.812 881.359 522.487 Z " fill="rgb(0,0,0)"/><path d=" M 890.453 519.194 Q 890.336 519.862 890.805 520.541 Q 891.555 520.823 892.234 520.541 C 896.125 517.377 899.359 516.229 902.512 515.151 C 903.836 514.651 903.672 514.518 903.567 514.377 C 903.461 514.237 903.93 513.862 901 514.659 C 898.07 515.456 890.57 518.526 890.453 519.194 Z " fill="rgb(0,0,0)"/><path d=" M 901.973 523.113 C 901.571 523.138 900.602 522.814 900.238 522.908 C 899.875 523.001 899.729 524.044 900.057 524.325 Q 900.385 524.607 899.811 525.673 Q 897.139 529.74 899.676 530.642 C 900.261 530.85 900.918 530.742 901.371 530.636 C 903.508 529.382 903.502 525.953 903.432 525.673 C 903.338 525.298 905.488 525.204 905.91 524.173 C 906.157 523.57 904.708 524.355 904.135 524.325 C 903.562 524.296 903.485 524.284 903.309 524.173 C 903.133 524.062 903.256 523.095 903.098 522.908 C 902.94 522.72 902.375 523.087 901.973 523.113 Z  M 901.586 525.855 C 901.375 525.503 899.933 528.076 900.461 529.036 C 900.654 529.388 901.756 527.531 901.797 527.279 C 902.008 525.978 901.797 526.206 901.586 525.855 Z " fill-rule="evenodd" fill="rgb(0,0,0)"/><path d=" M 910.102 521.663 Q 909.164 521.788 908.758 522.413 C 908.2 522.729 907.117 523.647 907.102 523.851 C 907.072 524.231 908.029 523.596 907.758 524.163 Q 906.727 526.319 905.445 528.819 Q 905.414 530.163 906.258 530.069 C 907.102 529.976 912.133 524.382 912.789 524.163 C 913.445 523.944 912.664 525.944 912.789 526.444 C 912.914 526.944 913.852 529.132 914.633 529.257 C 915.414 529.382 919.227 526.194 919.695 525.788 C 920.164 525.382 919.07 529.569 924.414 529.569 C 929.692 528.905 938.32 522.819 939.883 523.382 C 941.445 523.944 933.594 532.104 932.164 534.069 C 931.373 535.157 933.789 536.882 934.664 536.444 Q 935.668 536.429 936.231 536.101 Q 936.508 535.011 935.039 534.917 C 933.57 534.823 933.666 534.784 934.664 533.351 C 935.703 531.858 942.695 524.319 942.883 523.632 C 943.07 522.944 943.508 520.679 937.977 522.788 C 932.141 525.013 920.445 531.757 922.164 523.851 C 926.039 520.694 926.258 520.569 928.789 518.507 C 931.32 516.444 947.664 500.007 948.07 498.726 C 948.477 497.444 946.102 495.882 943.852 497.007 C 943.133 497.476 940.82 497.538 932.852 506.163 C 925.071 514.584 925.883 513.976 922.164 519.694 Q 921.508 520.819 920.352 523.632 Q 915.695 527.257 915.352 527.101 C 915.008 526.944 914.928 526.81 914.633 526.601 C 914.338 526.391 914.977 523.069 914.914 522.413 C 914.852 521.757 913.274 521.741 912.555 522.679 Q 911.836 523.616 909.508 525.007 L 910.741 522.733 L 910.914 522.413 Q 910.758 521.507 910.102 521.663 Z  M 922.883 521.663 Q 925.07 516.601 927.664 513.476 C 930.628 509.905 940.977 498.194 944.477 498.132 C 947.164 497.882 946.664 498.663 945.164 500.476 C 943.76 502.172 929.852 516.413 928.164 517.726 Q 926.477 519.038 922.883 521.663 Z " fill-rule="evenodd" fill="rgb(0,0,0)" vector-effect="non-scaling-stroke" stroke-width="0.1" stroke="rgb(240,128,128)" stroke-opacity="0.7" stroke-linejoin="miter" stroke-linecap="square" stroke-miterlimit="3"/></g><g><path d=" M 971.866 566.907 Q 972.431 566.941 972.655 566.76 C 973.1 566.401 972.962 565.655 973.007 565.008 Q 974.233 563.135 976.278 561.686 Q 978.739 560.737 978.669 563.339 C 978.599 565.94 978.616 566.819 978.669 567.452 C 978.722 568.085 979.091 567.988 979.337 568.032 C 979.583 568.076 986.661 561.288 987.188 561.2 C 987.716 561.112 987.762 561.147 987.804 560.878 C 987.845 560.608 987.444 560.21 986.335 560.579 C 985.225 560.948 980.339 566.169 980.163 566.028 C 979.987 565.887 979.927 565.843 979.811 565.729 C 979.696 565.616 980.058 562.565 979.337 561.686 C 978.616 560.807 977.304 559.385 974.608 561.37 Q 971.622 563.568 971.198 566.401 Q 971.638 566.995 971.866 566.907 Z " fill="rgb(0,0,0)"/><g><path d=" M 916 551.366 C 915.97 550.749 915.655 550.961 915.536 551.366 Q 913.754 554.71 914.192 555.553 Q 914.629 556.397 915.536 555.553 Q 916.442 554.491 917.036 554.21 C 917.629 553.928 929.192 546.775 929.536 546.681 Q 929.741 546.391 929.536 546.21 Q 917.489 552.721 917.036 553.085 C 916.739 553.323 915.918 553.944 915.754 553.928 C 915.59 553.913 915.543 552.069 916 551.366 Z " fill="rgb(0,0,0)" vector-effect="non-scaling-stroke" stroke-width="0.1" stroke="rgb(240,128,128)" stroke-opacity="0.7" stroke-linejoin="miter" stroke-linecap="square" stroke-miterlimit="3"/><path d=" M 931.068 546.21 Q 934.162 544.686 934.661 544.853 C 935.106 545.002 935.111 545.794 934.197 547.077 Q 933.283 548.36 933.098 549.116 Q 933.116 549.503 933.291 549.538 C 933.467 549.573 936.394 546.084 936.429 544.923 C 936.44 544.576 936.507 544.417 936.359 544.193 C 936.144 543.866 935.864 543.941 935.374 543.913 C 935.082 543.896 934.413 544.11 933.775 544.379 C 932.018 545.118 930.971 545.442 930.778 545.758 Q 930.707 545.934 931.068 546.21 Z " fill="rgb(0,0,0)" vector-effect="non-scaling-stroke" stroke-width="0.1" stroke="rgb(240,128,128)" stroke-opacity="0.7" stroke-linejoin="miter" stroke-linecap="square" stroke-miterlimit="3"/><path d=" M 916.457 558.866 C 916.575 558.737 917.254 558.819 917.536 559.1 C 917.817 559.381 918.145 559.733 918.192 560.342 C 918.239 560.952 918.965 565.241 919.481 566.178 C 919.996 567.116 919.856 567.092 919.481 567.28 C 919.177 567.432 918.625 566.875 918.52 566.436 C 918.227 565.217 918.044 564.263 917.676 562.991 C 917.008 560.682 916.34 558.995 916.457 558.866 Z " fill="rgb(0,0,0)" vector-effect="non-scaling-stroke" stroke-width="0.1" stroke="rgb(240,128,128)" stroke-opacity="0.7" stroke-linejoin="miter" stroke-linecap="square" stroke-miterlimit="3"/><path d=" M 923.137 560.038 C 923.237 560.093 924.06 559.967 924.075 559.85 C 924.089 559.733 923.77 558.796 923.418 558.749 C 923.067 558.702 922.66 559.006 922.645 559.194 C 922.63 559.381 923.038 559.982 923.137 560.038 L 923.137 560.038 L 923.137 560.038 L 923.137 560.038 L 923.137 560.038 Z  M 926.339 561.148 L 925.961 561.148 Q 925.792 560.999 925.786 560.881 C 925.779 560.764 926.199 560.553 926.278 560.6 Q 926.357 560.647 926.339 561.148 L 926.339 561.148 L 926.339 561.148 Z  M 927.297 550.329 Q 927.567 548.999 928.036 549.585 Q 928.504 550.171 928.903 552.796 Q 928.996 553.335 930.121 553.147 C 931.246 552.96 933.989 552.303 934.364 552.467 C 934.739 552.631 935.008 552.784 935.043 552.96 C 935.079 553.135 934.879 569.811 934.528 570.116 Q 934.176 570.421 933.239 570.374 Q 932.731 569.963 932.45 569.749 C 932.168 569.535 930.045 568.49 929.911 568.053 C 929.864 567.901 929.764 567.726 929.84 567.741 C 930.68 567.907 932.695 568.876 932.793 568.639 Q 932.911 568.358 933.239 568.194 L 933.661 560.483 Q 934.129 555.303 933.778 554.952 C 933.426 554.6 933.496 553.71 932.911 553.71 C 932.325 553.71 929.5 554.331 929.266 554.635 Q 929.032 554.94 929.536 558.749 L 930.121 558.608 L 932.207 556.944 Q 932.863 556.681 933.098 556.944 Q 933.333 557.207 933.239 557.46 Q 931.621 560.249 931.645 560.483 C 931.668 560.717 931.571 561.134 931.762 561.421 Q 931.953 561.707 933.239 561.702 Q 933.286 562.241 932.653 562.78 Q 932.02 563.319 930.778 564.303 Q 932.395 562.592 932.207 562.358 C 932.02 562.124 930.989 562.499 930.778 562.053 C 930.567 561.608 931.123 560.014 931.068 559.733 C 931.012 559.452 930.779 558.914 930.121 559.522 C 929.5 560.096 929.357 560.112 929.418 560.6 Q 929.371 564.702 929.418 567.467 C 928.926 567.268 928.926 567.275 928.497 566.952 C 927.425 566.146 926.646 565.049 926.161 563.835 C 926.098 563.678 925.671 564.09 925.465 564.303 C 924.96 564.909 924.283 565.525 923.911 565.921 C 923.579 566.272 923.254 566.647 922.645 566.952 Q 922.036 567.256 921.59 566.811 Q 921.942 566.624 923.653 564.655 Q 925.364 562.686 925.411 562.358 L 924.74 560.881 Q 924.207 560.671 923.036 561.022 Q 922.51 561.18 921.989 560.342 Q 921.337 558.508 921.989 557.764 C 922.471 557.214 922.937 557.738 923.418 557.905 C 924.316 558.216 925.109 559.718 925.293 559.733 Q 925.477 559.748 926.793 560.038 Q 927.754 560.495 927.942 560.342 Q 928.129 560.19 928.34 559.967 L 928.223 555.678 L 927.473 555.139 L 921.59 557.764 Q 920.207 558.038 919.809 558.116 Q 919.411 558.194 919.2 557.647 L 920.09 557.085 Q 927.491 553.932 927.778 553.598 Q 928.065 553.264 927.297 550.329 L 927.297 550.329 L 927.297 550.329 L 927.297 550.329 L 927.297 550.329 Z  M 927.582 562.225 Q 927.457 562.247 926.673 562.783 Q 927.114 563.626 927.473 563.864 Q 927.832 564.102 928.036 564.053 Q 927.983 562.739 927.942 562.225 C 927.877 562.141 927.707 562.204 927.582 562.225 Z " fill-rule="evenodd" fill="rgb(0,0,0)"/></g><g><path d=" M 961.429 557.839 Q 964.991 559.245 965.429 559.276 Q 965.866 559.307 969.804 559.276 L 969.804 558.745 Q 968.96 557.995 963.616 557.307 Q 961.71 557.276 961.429 557.839 Z " fill="rgb(0,0,0)"/><path d=" M 958.665 561.862 Q 958.53 562.407 958.987 562.671 C 959.444 562.934 960.981 563.487 961.196 563.87 Q 961.304 564.061 960.37 565.378 Q 961.013 565.538 961.302 565.378 C 961.618 565.202 962.413 564.198 962.356 563.954 C 962.342 563.892 962.295 563.559 962.145 563.426 C 961.671 563.005 959.812 561.786 959.333 561.757 Q 958.952 561.733 958.665 561.862 Z " fill="rgb(0,0,0)"/><path d=" M 958.384 567.276 C 958.102 567.768 958.032 567.874 958.384 567.997 C 958.735 568.12 959.772 568.436 960.669 568.278 C 961.565 568.12 961.929 568.307 962.005 568.436 Q 962.081 568.565 962.005 568.999 Q 962.328 568.738 962.386 568.526 C 962.443 568.314 962.339 567.751 961.899 567.61 C 961.46 567.469 958.665 566.784 958.384 567.276 Z " fill="rgb(0,0,0)"/><path d=" M 954.554 541.214 C 954.304 540.526 954.772 539.714 955.366 539.589 Q 955.96 539.464 956.647 539.932 Q 956.96 541.589 950.585 547.214 Q 944.21 552.839 953.866 545.589 Q 960.46 541.432 964.772 540.37 C 969.085 539.307 971.515 539.405 971.585 539.589 C 971.655 539.772 971.815 540.194 971.835 540.37 C 971.854 540.546 967.085 547.401 966.054 547.87 C 965.022 548.339 966.043 547.444 966.054 547.214 L 969.397 541.495 Q 969.499 540.897 969.3 540.592 C 964.6 540.792 958.515 542.568 949.304 550.182 Q 946.96 552.12 947.304 551.651 L 945.397 551.401 Q 944.147 551.12 945.179 550.182 C 946.21 549.245 951.554 545.432 952.21 544.651 C 952.866 543.87 954.804 541.901 954.554 541.214 Z " fill="rgb(0,0,0)"/><path d=" M 950.304 552.839 C 951.569 552.432 956.132 549.589 956.21 549.526 C 956.288 549.464 956.444 548.745 956.507 548.651 C 956.569 548.557 956.569 547.389 956.647 547.214 C 956.725 547.038 957.698 546.405 957.835 546.495 Q 957.972 546.585 958.054 548.026 Q 958.929 548.026 959.147 548.026 C 959.366 548.026 961.194 546.561 961.397 546.495 C 961.6 546.428 962.729 546.456 962.616 546.495 C 962.503 546.534 959.936 551.237 960.147 551.315 Q 960.358 551.393 960.804 551.401 Q 961.829 551.042 962.339 550.835 C 962.849 550.628 964.296 550.05 964.491 550.057 C 964.686 550.065 965.132 550.557 965.147 550.714 C 965.163 550.87 954.622 560.579 953.241 562.589 Q 952.536 563.614 950.647 566.401 Q 949.772 566.557 949.46 567.339 Q 949.147 568.12 948.679 568.526 Q 947.116 570.141 946.991 570.182 C 946.601 570.31 945.72 570.7 945.938 569.825 C 946.157 568.95 947.71 566.839 948.085 566.807 C 948.46 566.776 948.616 566.776 948.679 566.401 C 948.741 566.026 950.616 562.62 954.835 558.776 C 959.054 554.932 960.979 553.471 961.054 553.307 C 961.128 553.143 961.104 552.885 961.054 552.839 C 961.003 552.792 957.71 554.214 956.647 555.589 C 955.241 556.729 952.085 558.776 951.866 558.776 C 951.647 558.776 950.757 558.807 950.647 558.667 C 950.538 558.526 950.46 557.62 950.835 557.62 C 951.21 557.62 952.772 557.276 952.96 556.964 C 953.147 556.651 955.772 554.339 955.835 553.714 Q 955.897 553.089 955.835 551.651 C 955.817 551.55 955.663 551.541 955.565 551.491 C 954.147 552.405 951.84 553.472 951.866 553.714 Q 951.908 554.107 950.835 554.182 Q 949.991 553.167 950.304 552.839 Z  M 957.835 549.635 Q 959.031 548.932 959.219 549.135 C 959.406 549.339 959.28 550.313 959.288 550.385 C 959.376 551.199 957.478 552.677 957.444 552.651 C 957.41 552.625 957.364 551.438 957.444 550.665 Q 957.516 549.972 957.835 549.635 Z " fill-rule="evenodd" fill="rgb(0,0,0)"/></g></g></g></svg>