<svg id="Main" xmlns="http://www.w3.org/2000/svg" viewBox="0 0 512 512"><path d="M471,256A214.8122,214.8122,0,0,1,256,471a216.4337,216.4337,0,0,1-40.955-3.896A214.86,214.86,0,0,1,41,256,214.9809,214.9809,0,0,1,256,41a214.4584,214.4584,0,0,1,154.4137,65.4129q6.911,7.1214,13.146,14.8661c1.3337,1.6587,2.6413,3.3258,3.9229,5.0281A214.5854,214.5854,0,0,1,471,256Z" fill="#5897d1"/><path d="M419.2572,204.2572A163.1145,163.1145,0,0,1,256,367.5136a164.3664,164.3664,0,0,1-31.0985-2.9579A163.271,163.271,0,1,1,419.2572,204.2572Z" fill="#9fc5e6"/><path d="M418.8558,63.0971v44.65A10.5833,10.5833,0,0,1,408.2729,118.33H333.7074V52.5134h74.5655A10.584,10.584,0,0,1,418.8558,63.0971Z" fill="#ff668c"/><path d="M329.7492,458.0118A215.2574,215.2574,0,0,1,60.2534,345.0537l67.6679-90.0019a30.79,30.79,0,0,1,49.2216,0l38.5328,51.2574Z" fill="#343a6e"/><path d="M408.6937,77.1989a8.2229,8.2229,0,0,1-8.2229,8.223H371.8716a8.2271,8.2271,0,0,0,0,16.4542h9.8724a8.2271,8.2271,0,1,1,0,16.4542H333.7065V52.5134h46.87a8.2238,8.2238,0,0,1,8.2229,8.2313,8.2246,8.2246,0,0,0,8.2313,8.2229h3.44A8.23,8.23,0,0,1,408.6937,77.1989Z" fill="#ef487d"/><path d="M328.6658,41.0008h0a7.2391,7.2391,0,0,0-7.2394,7.24V230.2126h14.4789V48.24A7.24,7.24,0,0,0,328.6658,41.0008Z" fill="#f9df73"/><path d="M454.3619,339.0513q-2.87,6.8317-6.1872,13.4266A215.3468,215.3468,0,0,1,215.045,467.104a214.1378,214.1378,0,0,1-82.1653-34.83L299.2368,211.0171a36.8115,36.8115,0,0,1,58.8571,0Z" fill="#484b7f"/><path d="M328.67,196.3173c-5.6429,0-11.285,4.8972-15.0584,14.699L215.045,467.104a213.7775,213.7775,0,0,1-82.1653-34.83L299.2461,211.0171A36.578,36.578,0,0,1,328.67,196.3173Z" fill="#343a6e"/><path d="M448.1747,352.4779A215.3468,215.3468,0,0,1,215.045,467.104a213.4209,213.4209,0,0,1-59.4366-20.9382L264.82,337.7974c-17.0068,44.185,31.1885,55.6372,81.2087,37.2085C391.9237,358.0939,396.8116,340.0692,448.1747,352.4779Z" fill="#343a6e"/><path d="M215.6766,306.31c-25.6245.886-50.9072,16.0419-67.0884,16.0419-25.0106,0-54.584-22.1845-20.6661-67.2992a30.79,30.79,0,0,1,49.2216,0Z" fill="#484b7f"/></svg>